<?xml version="1.0" standalone="no"?>
<!DOCTYPE svg PUBLIC "-//W3C//DTD SVG 20010904//EN"
 "http://www.w3.org/TR/2001/REC-SVG-20010904/DTD/svg10.dtd">
<svg version="1.0" xmlns="http://www.w3.org/2000/svg"
 width="460.000000pt" height="460.000000pt" viewBox="0 0 460.000000 460.000000"
 preserveAspectRatio="xMidYMid meet">
<metadata>
Created by potrace 1.14, written by Peter Selinger 2001-2017
</metadata>
<g transform="translate(0.000000,460.000000) scale(0.100000,-0.100000)"
fill="#000000" stroke="none">
<path d="M40 4592 c0 -4 4 -12 9 -17 5 -6 18 -26 29 -46 15 -27 17 -40 9 -48
-8 -8 -7 -11 4 -11 9 0 41 -24 72 -53 68 -63 75 -96 35 -176 -22 -46 -23 -52
-9 -78 16 -31 20 -193 7 -250 -7 -26 -5 -34 8 -39 9 -3 16 -12 16 -18 0 -7 15
-18 34 -24 44 -16 54 -51 27 -90 -12 -15 -21 -46 -23 -70 -1 -24 -6 -46 -10
-48 -4 -3 -8 -16 -8 -30 0 -18 -6 -24 -22 -25 -13 0 -17 -3 -10 -6 6 -2 12
-12 12 -21 0 -8 7 -23 15 -32 8 -9 18 -45 22 -80 4 -46 14 -76 35 -107 16 -24
33 -43 36 -43 15 0 36 -46 37 -80 1 -23 -4 -39 -16 -47 -16 -12 -14 -16 17
-47 26 -26 34 -42 34 -70 0 -20 7 -53 15 -73 8 -19 15 -49 15 -65 0 -16 5 -38
11 -49 10 -20 15 -89 7 -120 -2 -8 -18 -33 -36 -55 -18 -21 -32 -49 -32 -61 0
-12 -8 -30 -19 -40 -31 -30 -32 -105 -4 -223 39 -161 27 -205 -82 -299 -33
-29 -66 -66 -73 -84 -20 -45 -25 -121 -12 -165 20 -65 22 -128 5 -142 -8 -7
-15 -21 -15 -31 0 -9 -7 -25 -16 -34 -12 -11 -14 -26 -10 -53 28 -173 14 -243
-61 -318 l-46 -45 5 -77 c4 -50 15 -98 31 -137 24 -58 30 -93 28 -163 -1 -42
-48 -92 -85 -92 l-26 0 0 -355 0 -355 654 0 c646 0 655 0 661 20 3 11 11 20
16 20 5 0 9 7 9 15 0 9 11 20 24 25 13 5 26 14 28 21 3 8 11 10 24 5 19 -7 19
-8 0 -21 -13 -10 -17 -21 -13 -37 4 -12 1 -28 -5 -35 -9 -11 65 -13 418 -11
420 3 429 3 432 23 2 11 1 17 -4 12 -10 -10 -54 32 -54 53 0 20 -65 90 -84 90
-7 0 -16 11 -18 25 -3 14 -2 25 2 25 5 0 19 22 32 48 19 38 22 55 15 81 -7 28
-11 32 -32 27 -13 -3 -27 -1 -30 5 -4 6 -17 8 -30 5 -14 -4 -28 0 -35 9 -7 8
-23 15 -35 15 -12 0 -28 7 -35 15 -11 13 -9 21 10 47 13 18 23 39 23 47 0 9
11 24 24 34 13 10 23 25 23 34 0 9 6 13 15 9 10 -4 15 1 15 14 0 12 7 20 16
20 12 0 15 -6 10 -25 -4 -14 -4 -30 -1 -36 11 -17 65 24 83 64 16 36 19 38 55
33 33 -4 42 0 64 25 15 16 31 29 37 29 6 0 16 10 21 23 6 12 13 20 16 17 10
-9 39 22 39 42 0 10 9 28 20 40 21 23 26 53 10 63 -5 3 -10 17 -10 31 0 29
-41 50 -68 35 -9 -5 -21 -10 -27 -11 -25 -6 -54 -20 -60 -30 -3 -5 -10 -8 -15
-5 -4 3 -25 -11 -46 -30 -42 -37 -84 -55 -124 -52 -18 2 -28 -6 -38 -26 -16
-32 -28 -35 -35 -7 -4 15 -14 20 -36 20 -17 0 -31 -5 -31 -10 0 -6 10 -8 24
-4 18 4 25 1 28 -14 7 -24 -6 -50 -16 -33 -10 16 -26 14 -26 -4 0 -8 -9 -15
-20 -15 -11 0 -20 -5 -20 -11 0 -6 -8 -9 -18 -7 -11 3 -29 0 -42 -7 -13 -7
-31 -10 -41 -8 -11 3 -21 -1 -25 -11 -3 -8 -22 -18 -42 -22 -21 -4 -39 -10
-42 -13 -9 -12 -117 -41 -151 -41 -19 0 -40 -5 -47 -12 -9 -9 -15 -9 -23 -1
-13 13 -4 33 17 33 8 0 14 6 14 14 0 8 10 22 22 30 12 9 17 16 11 16 -7 0 -15
-5 -18 -10 -4 -6 -11 -8 -16 -4 -5 3 -7 10 -4 15 4 5 1 9 -5 9 -7 0 -10 -7 -6
-15 6 -17 -5 -20 -20 -5 -12 12 -44 3 -44 -11 0 -5 8 -9 17 -9 14 0 15 -2 4
-12 -11 -11 -15 -10 -24 4 -10 15 -13 15 -38 -3 -20 -14 -30 -16 -35 -8 -5 8
-3 9 7 4 11 -6 12 -5 1 6 -7 7 -27 13 -45 14 -29 0 -32 3 -32 29 -1 16 -6 31
-13 34 -7 2 -12 10 -12 18 0 8 -4 14 -9 14 -5 0 -11 14 -14 30 -4 17 -11 30
-17 30 -6 0 -8 -11 -4 -27 l7 -28 -33 33 c-18 17 -40 32 -50 32 -30 0 -50 11
-42 24 4 6 7 22 7 36 0 18 6 26 22 28 32 5 38 37 14 68 -22 28 -20 47 4 37 9
-3 15 1 15 10 0 21 -38 29 -49 9 -6 -10 -8 -1 -6 29 2 39 5 44 29 46 14 1 26
-2 26 -8 0 -5 5 -9 10 -9 6 0 10 14 10 31 0 16 -4 28 -9 24 -6 -3 -14 2 -19
11 -6 11 -17 15 -31 11 -18 -4 -21 -1 -21 21 0 43 14 56 46 47 16 -5 32 -8 37
-7 4 1 7 -5 7 -14 0 -11 6 -14 20 -9 15 5 20 2 21 -12 0 -16 2 -15 16 5 19 26
33 29 33 5 0 -11 8 -19 23 -20 57 -4 77 -9 77 -18 1 -15 50 -49 50 -34 0 22
-51 88 -74 95 -11 4 -38 20 -58 36 -21 16 -42 27 -46 24 -5 -3 -14 6 -21 20
-6 14 -17 24 -23 23 -30 -5 -77 17 -137 62 -51 39 -71 49 -102 49 -35 0 -41 4
-56 35 -13 26 -21 34 -35 29 -10 -3 -18 -4 -18 -2 0 2 -7 24 -15 50 -12 40
-12 48 -1 48 8 0 17 -12 20 -26 4 -15 13 -32 20 -40 11 -11 15 -8 20 18 3 18
13 39 20 47 8 9 14 18 14 21 -1 3 4 21 11 41 9 29 16 36 34 34 12 -1 28 -3 35
-4 7 0 11 -5 7 -10 -3 -5 -1 -12 5 -16 15 -9 12 -25 -5 -25 -8 0 -15 -4 -15
-10 0 -5 7 -10 15 -10 8 0 15 5 15 10 0 6 7 10 15 10 19 0 19 39 0 64 -8 11
-15 14 -15 8 0 -17 -30 -15 -36 3 -5 12 -10 13 -20 4 -8 -6 -14 -7 -14 -2 0 9
-63 36 -91 39 -25 2 -73 39 -89 68 -7 14 -19 26 -27 26 -7 0 -13 7 -13 16 0 8
-4 13 -8 10 -12 -7 -44 88 -40 116 2 15 9 22 21 22 9 -1 16 3 15 10 -3 18 12
55 45 110 16 28 30 60 31 70 1 11 10 20 21 22 11 2 21 8 23 14 2 6 15 23 28
37 13 14 24 29 24 33 0 4 10 18 23 32 12 13 41 47 62 74 22 27 52 62 67 79 16
16 28 35 28 41 0 6 7 17 15 24 29 24 55 97 55 154 0 31 5 56 10 56 6 0 10 7
10 15 0 8 -5 15 -11 15 -7 0 -9 9 -5 23 4 16 -1 31 -17 48 -12 13 -20 31 -19
40 2 12 -5 19 -20 21 -17 2 -30 18 -48 55 -20 42 -29 52 -45 48 -11 -3 -14 -2
-7 1 17 8 5 24 -20 24 -16 0 -18 3 -9 14 9 11 7 15 -12 20 -28 7 -32 41 -7 56
12 8 12 10 1 10 -10 0 -11 3 -2 13 6 8 7 17 3 22 -4 4 3 6 15 3 12 -3 22 -3
21 1 -2 20 5 30 35 42 17 7 39 22 48 33 10 12 30 21 49 22 18 1 51 8 72 15 34
11 38 16 33 36 -3 13 -1 23 3 23 18 0 54 40 49 54 -6 15 18 30 34 20 5 -3 9
-14 9 -25 0 -10 5 -19 10 -19 19 0 10 36 -14 59 -18 17 -25 19 -29 9 -4 -9 -6
-8 -6 3 -1 9 6 22 14 29 8 7 15 19 15 26 0 8 5 14 10 14 10 0 14 -14 11 -39
-2 -11 0 -11 12 0 8 8 13 19 10 25 -2 7 0 15 6 19 7 4 11 -8 11 -34 0 -30 -4
-41 -15 -41 -8 0 -15 -4 -15 -10 0 -21 39 -10 43 13 2 12 4 -11 4 -50 0 -40 3
-76 6 -80 4 -3 7 2 7 11 0 43 108 174 132 160 7 -4 8 -3 4 4 -4 7 -3 12 2 12
5 0 13 -26 18 -57 4 -32 8 -62 9 -68 1 -5 3 -34 3 -64 2 -46 4 -52 17 -41 8 7
15 19 15 28 0 8 3 13 6 9 4 -3 -3 -25 -15 -49 -12 -26 -18 -53 -15 -68 5 -20
3 -22 -5 -10 -6 8 -11 10 -11 4 0 -6 9 -19 20 -29 21 -19 21 -18 14 37 -6 48
-4 55 11 55 15 0 17 -8 12 -54 -3 -30 -2 -53 4 -53 16 0 11 -77 -6 -84 -8 -3
-15 -11 -15 -18 0 -9 3 -9 11 2 8 11 9 5 4 -25 -4 -22 -9 -43 -11 -47 -3 -4
-29 -7 -58 -7 -29 1 -61 -3 -72 -8 -17 -8 -30 -9 -51 -3 -23 6 -109 -3 -115
-13 -3 -6 -16 -11 -27 -12 -11 -1 -18 2 -15 7 9 13 -13 9 -25 -5 -13 -17 10
-115 30 -128 8 -5 48 -7 89 -6 79 3 130 -12 130 -39 0 -8 5 -14 11 -14 7 0 9
9 6 21 -4 16 -3 18 8 9 7 -6 15 -37 19 -69 4 -38 12 -61 21 -65 22 -8 19 -48
-2 -44 -11 2 -17 11 -15 23 2 19 2 19 -11 3 -8 -10 -19 -18 -25 -18 -6 0 -12
-6 -15 -12 -4 -10 -7 -10 -18 0 -17 16 -32 15 -26 -1 4 -10 -2 -13 -19 -9 -25
5 -29 -5 -24 -70 1 -16 -3 -28 -8 -28 -5 0 -1 -17 9 -37 10 -21 19 -48 19 -60
0 -19 5 -23 29 -23 37 0 84 -40 75 -64 -6 -16 7 -22 20 -9 13 13 48 14 41 1
-4 -7 -1 -6 7 2 18 20 59 25 52 6 -4 -10 0 -13 13 -11 10 2 21 4 26 4 4 1 7
14 7 29 0 16 9 37 20 47 11 10 20 24 20 31 0 8 6 11 15 8 11 -4 13 -2 9 9 -3
8 -1 18 4 21 6 3 13 -5 16 -19 4 -14 11 -25 17 -25 6 0 8 4 4 9 -3 5 -1 12 5
16 5 3 10 -1 10 -10 0 -9 5 -13 10 -10 6 3 10 -1 10 -11 0 -12 -7 -15 -30 -12
-16 3 -28 2 -25 0 2 -3 0 -13 -5 -23 -7 -12 -7 -20 0 -24 5 -3 10 -1 10 4 0 6
7 11 16 11 9 0 12 5 8 12 -4 7 -3 8 5 4 6 -4 9 -17 6 -29 -5 -21 -5 -21 7 1 6
12 16 22 22 21 33 -4 41 2 22 16 -32 24 1 17 50 -10 45 -25 49 -24 34 10 -5
12 -9 14 -9 6 -1 -12 -5 -11 -19 3 -9 9 -40 34 -69 55 -51 38 -51 39 -37 66
19 37 18 48 -6 42 -27 -7 -25 11 4 47 14 16 22 35 19 43 -4 9 0 11 11 7 19 -7
20 -1 4 27 -11 17 -10 22 6 35 26 19 36 18 37 -3 0 -11 3 -13 6 -5 2 6 9 10
14 7 5 -4 6 2 3 12 -4 11 4 6 20 -12 14 -16 25 -36 26 -42 0 -7 6 -13 14 -13
8 0 17 -8 20 -17 6 -15 8 -15 16 -3 5 8 13 11 17 6 4 -4 0 -14 -10 -21 -17
-12 -16 -18 22 -96 21 -46 42 -95 45 -109 3 -14 3 -19 0 -12 -7 14 -24 16 -24
3 0 -5 8 -12 18 -16 21 -6 42 -45 42 -78 0 -13 7 -32 15 -43 8 -12 11 -24 7
-28 -3 -4 1 -4 11 0 12 4 17 1 17 -9 0 -21 55 -120 69 -125 18 -6 30 40 15 56
-8 7 -14 25 -14 40 1 25 2 26 15 9 9 -13 20 -17 34 -12 27 8 61 -11 61 -36 0
-11 8 -23 18 -26 9 -4 20 -11 24 -17 5 -7 8 -4 8 7 0 10 3 16 8 14 18 -12 132
-18 132 -8 0 6 7 11 15 11 8 0 15 -5 15 -11 0 -7 11 -8 29 -4 17 4 32 2 36 -5
4 -7 19 -9 36 -5 30 7 59 -11 59 -37 1 -8 6 -6 15 6 14 18 15 17 15 -23 0 -23
-4 -40 -9 -37 -16 10 -21 -23 -6 -38 17 -16 20 -41 5 -31 -6 4 -10 -11 -10
-37 -1 -42 -20 -84 -33 -71 -4 3 -7 -1 -7 -10 0 -8 -7 -22 -15 -30 -17 -18
-46 -97 -39 -109 3 -4 0 -8 -7 -8 -10 0 -10 -3 -1 -12 9 -9 17 -7 34 8 34 30
75 54 93 54 9 0 13 4 10 10 -3 5 0 7 8 4 17 -6 67 63 67 94 0 15 6 22 20 22
11 0 20 5 20 10 0 6 8 10 19 10 22 0 71 61 71 89 0 11 5 23 10 26 6 4 10 -5
10 -19 0 -14 4 -26 9 -26 5 0 13 -10 17 -22 l7 -22 17 22 c18 22 40 28 54 15
4 -5 11 -9 14 -9 31 -7 52 -19 52 -30 0 -8 5 -14 12 -14 6 0 9 3 5 6 -3 4 3
14 15 24 21 17 21 18 4 54 -9 20 -15 44 -13 54 4 16 5 16 6 0 0 -10 7 -18 15
-18 7 0 19 -7 26 -15 16 -19 40 -19 40 0 0 8 4 15 10 15 5 0 9 5 7 12 -1 6 8
17 20 23 13 7 31 19 41 28 14 13 25 15 50 8 18 -6 34 -6 37 -1 3 5 12 7 20 3
22 -8 18 16 -10 69 -20 38 -22 47 -10 52 8 3 15 10 15 16 0 18 29 42 40 35 6
-4 17 -2 24 4 7 6 26 10 42 10 51 1 80 7 104 24 14 9 32 17 42 17 22 0 24 -26
2 -34 -12 -4 -6 -14 25 -44 23 -22 41 -46 41 -55 0 -10 5 -17 10 -17 6 0 10 4
10 8 0 10 45 32 66 32 8 0 19 -12 25 -27 6 -16 19 -37 30 -49 36 -38 137 -16
139 30 0 5 16 23 35 42 40 38 43 49 14 72 -29 25 -16 52 26 52 34 0 45 13 45
51 0 10 9 28 21 40 20 20 20 35 -3 89 -6 14 -14 34 -18 45 -4 11 -15 37 -24
58 -20 48 -10 69 15 31 l18 -28 -2 43 c-1 39 -3 42 -24 38 -17 -3 -23 0 -23
13 0 10 7 20 15 24 16 6 12 51 -6 70 -5 6 -9 20 -9 32 0 29 -28 94 -40 94 -6
0 -10 6 -10 13 0 6 -11 12 -24 12 -32 0 -31 -21 5 -112 34 -83 34 -83 14 -83
-8 0 -23 18 -32 40 -15 35 -21 39 -45 35 -32 -6 -46 10 -21 24 10 6 12 11 6
11 -7 0 -13 6 -13 14 0 7 -11 34 -25 60 -14 26 -25 61 -25 79 0 18 -7 41 -15
51 -8 11 -15 27 -15 37 0 9 -9 19 -19 22 -11 3 -19 14 -20 28 -2 31 -7 100 -9
117 -1 6 -11 12 -22 12 -13 0 -20 7 -20 20 0 13 -7 20 -20 20 -11 0 -20 5 -20
10 0 6 7 10 16 10 12 0 15 6 10 24 -4 15 0 28 10 37 13 10 16 9 21 -9 3 -12
12 -22 19 -22 17 0 18 32 2 48 -9 9 -9 15 -1 23 17 17 31 3 26 -25 -5 -23 -2
-25 38 -28 37 -2 45 -7 47 -25 4 -24 -12 -31 -24 -12 -4 8 -9 7 -15 -2 -14
-22 -11 -29 14 -29 13 0 28 -5 35 -12 10 -10 11 -6 6 18 -4 22 -1 36 11 47 21
22 10 40 -21 34 -18 -3 -24 0 -24 14 0 9 4 19 8 21 5 2 12 18 15 36 4 21 3 31
-3 27 -6 -3 -10 -13 -10 -21 0 -8 -4 -14 -9 -14 -13 0 -19 45 -9 63 5 10 4 18
-3 23 -13 8 -29 -13 -29 -38 0 -16 -2 -16 -20 2 -24 24 -25 30 -5 30 8 0 15 5
15 10 0 6 7 10 15 10 8 0 15 6 15 13 1 6 8 -1 16 -17 12 -21 19 -25 27 -17 8
8 7 15 -4 27 -19 18 -13 64 7 64 8 0 14 -9 14 -20 0 -21 7 -25 27 -12 8 5 9
13 3 22 -14 23 -12 30 9 30 11 0 23 5 26 10 3 6 2 10 -3 10 -5 0 -12 9 -15 20
-3 13 -10 18 -21 14 -9 -3 -16 -1 -16 5 0 7 8 14 18 17 9 3 26 10 37 14 11 5
26 10 34 12 9 3 1 13 -22 27 -36 22 -41 41 -10 41 11 0 13 5 7 18 -4 9 -8 29
-8 44 -1 15 -7 33 -13 40 -7 6 -13 17 -13 23 0 7 -9 20 -20 30 -21 19 -60 93
-60 114 0 8 10 10 35 5 48 -9 44 0 -12 27 -27 13 -50 24 -52 26 -2 1 -1 14 3
28 7 27 26 35 26 10 0 -29 27 -15 37 19 9 31 8 37 -12 56 -15 14 -25 18 -30
11 -3 -6 1 -14 9 -17 21 -8 20 -30 0 -38 -10 -4 -26 5 -45 25 -36 38 -37 59
-5 59 24 0 24 1 11 27 -8 15 -12 30 -10 34 3 4 -7 10 -22 14 -25 6 -73 51 -73
68 0 4 -11 13 -25 19 -16 7 -25 19 -25 35 l0 23 -1085 0 -1085 0 13 -27 c11
-26 12 -26 15 -5 5 31 17 28 32 -8 14 -34 7 -66 -12 -53 -7 4 -22 8 -33 8 -16
0 -21 8 -23 43 l-3 42 -568 0 c-428 0 -570 -3 -579 -12 -9 -9 -15 -9 -24 0
-14 14 -358 18 -358 4z m3130 -57 c0 -8 -4 -15 -10 -15 -5 0 -10 7 -10 15 0 8
5 15 10 15 6 0 10 -7 10 -15z m35 -15 c3 -5 1 -10 -4 -10 -6 0 -11 5 -11 10 0
6 2 10 4 10 3 0 8 -4 11 -10z m139 -50 c16 -15 -5 -30 -32 -24 -34 8 -46 19
-38 33 7 11 54 5 70 -9z m419 -64 c24 -19 21 -27 -8 -22 -30 6 -45 14 -45 27
0 13 32 11 53 -5z m-1083 -66 c0 -5 -4 -10 -10 -10 -5 0 -10 5 -10 10 0 6 5
10 10 10 6 0 10 -4 10 -10z m1225 -60 c3 -5 1 -10 -4 -10 -6 0 -11 5 -11 10 0
6 2 10 4 10 3 0 8 -4 11 -10z m-1575 -24 c0 -3 -4 -8 -10 -11 -5 -3 -10 -1
-10 4 0 6 5 11 10 11 6 0 10 -2 10 -4z m40 -4 c0 -13 -12 -22 -22 -16 -10 6
-1 24 13 24 5 0 9 -4 9 -8z m1330 -8 c0 -17 -22 -14 -28 4 -2 7 3 12 12 12 9
0 16 -7 16 -16z m-1360 -49 c0 -14 -4 -25 -9 -25 -12 0 -23 29 -15 41 10 18
24 9 24 -16z m40 0 c0 -16 -6 -25 -15 -25 -15 0 -21 31 -8 43 13 14 23 6 23
-18z m1030 -25 c0 -5 -4 -10 -10 -10 -5 0 -10 5 -10 10 0 6 5 10 10 10 6 0 10
-4 10 -10z m349 -79 c10 -6 10 -13 2 -29 -15 -29 -62 -43 -106 -31 -28 8 -35
15 -35 34 0 20 5 25 25 25 14 0 25 -4 25 -10 0 -16 27 -12 34 5 6 16 33 20 55
6z m201 -91 c0 -37 -2 -40 -27 -41 -16 -1 -33 -1 -39 0 -7 1 -14 -7 -18 -16
-3 -10 -8 -23 -11 -29 -3 -6 12 -19 34 -29 37 -16 40 -20 34 -49 -3 -17 -8
-33 -10 -36 -3 -3 -29 -5 -59 -5 -58 0 -80 18 -27 23 37 4 50 27 23 42 -11 6
-20 8 -20 4 0 -4 -2 -5 -5 -2 -3 3 -1 17 4 31 9 22 7 24 -10 20 -25 -7 -25 17
0 46 14 16 21 18 25 9 5 -10 7 -10 12 -1 3 7 11 10 19 7 8 -3 16 4 20 16 4 13
12 19 21 16 9 -3 14 1 14 14 0 11 5 20 10 20 6 0 10 -18 10 -40z m-380 -25 c0
-21 -5 -25 -30 -25 -25 0 -30 4 -30 25 0 21 5 25 30 25 25 0 30 -4 30 -25z
m-920 -55 c0 -5 -4 -10 -10 -10 -5 0 -10 5 -10 10 0 6 5 10 10 10 6 0 10 -4
10 -10z m35 0 c3 -5 1 -10 -4 -10 -6 0 -11 5 -11 10 0 6 2 10 4 10 3 0 8 -4
11 -10z m-1175 -100 c0 -5 -4 -10 -10 -10 -5 0 -10 5 -10 10 0 6 5 10 10 10 6
0 10 -4 10 -10z m-110 -132 c-1 -16 -24 -48 -36 -48 -4 0 -3 5 4 12 7 7 12 20
12 30 0 10 5 18 10 18 6 0 10 -6 10 -12z m88 -23 c-6 -27 1 -32 20 -13 7 7 12
8 12 4 0 -9 -30 -35 -41 -36 -8 0 -19 52 -12 62 10 18 25 6 21 -17z m1102 21
c0 -1 -5 -17 -11 -35 -11 -31 -29 -43 -29 -18 0 29 13 57 26 57 8 0 14 -2 14
-4z m34 -4 c2 -4 -1 -18 -8 -31 -15 -27 -31 -13 -21 19 6 20 20 26 29 12z
m176 -22 c0 -16 -7 -20 -35 -20 -28 0 -35 4 -35 20 0 16 7 20 35 20 28 0 35
-4 35 -20z m930 13 c0 -5 -4 -14 -9 -21 -7 -11 -9 -11 -14 1 -3 8 -3 18 0 21
9 8 23 7 23 -1z m-1430 -7 c0 -3 -4 -8 -10 -11 -5 -3 -10 -1 -10 4 0 6 5 11
10 11 6 0 10 -2 10 -4z m910 -16 c0 -5 -4 -10 -10 -10 -5 0 -10 5 -10 10 0 6
5 10 10 10 6 0 10 -4 10 -10z m30 0 c0 -5 -4 -10 -10 -10 -5 0 -10 5 -10 10 0
6 5 10 10 10 6 0 10 -4 10 -10z m-1890 -10 c0 -5 -2 -10 -4 -10 -3 0 -8 5 -11
10 -3 6 -1 10 4 10 6 0 11 -4 11 -10z m180 -20 c0 -5 -2 -10 -4 -10 -3 0 -8 5
-11 10 -3 6 -1 10 4 10 6 0 11 -4 11 -10z m1750 0 c0 -5 -4 -10 -10 -10 -5 0
-10 5 -10 10 0 6 5 10 10 10 6 0 10 -4 10 -10z m35 0 c3 -5 1 -10 -4 -10 -6 0
-11 5 -11 10 0 6 2 10 4 10 3 0 8 -4 11 -10z m-1831 -35 c-4 -8 -10 -15 -15
-15 -4 0 -6 7 -3 15 4 8 10 15 15 15 4 0 6 -7 3 -15z m-57 -57 c-3 -8 -6 -5
-6 6 -1 11 2 17 5 13 3 -3 4 -12 1 -19z m2379 1 c8 -14 -18 -31 -30 -19 -9 9
0 30 14 30 5 0 12 -5 16 -11z m-2391 -28 c3 -5 1 -12 -5 -16 -5 -3 -10 1 -10
9 0 18 6 21 15 7z m2485 -12 c0 -6 -4 -7 -10 -4 -5 3 -10 11 -10 16 0 6 5 7
10 4 6 -3 10 -11 10 -16z m-2090 -13 c0 -3 -4 -8 -10 -11 -5 -3 -10 -1 -10 4
0 6 5 11 10 11 6 0 10 -2 10 -4z m1450 -6 c0 -5 -4 -10 -10 -10 -5 0 -10 5
-10 10 0 6 5 10 10 10 6 0 10 -4 10 -10z m30 0 c0 -5 -2 -10 -4 -10 -3 0 -8 5
-11 10 -3 6 -1 10 4 10 6 0 11 -4 11 -10z m-1700 -10 c0 -5 -4 -10 -10 -10 -5
0 -10 5 -10 10 0 6 5 10 10 10 6 0 10 -4 10 -10z m50 -11 c0 -5 -4 -9 -10 -9
-5 0 -10 7 -10 16 0 8 5 12 10 9 6 -3 10 -10 10 -16z m1340 -85 c0 -8 -5 -12
-10 -9 -6 4 -8 11 -5 16 9 14 15 11 15 -7z m40 6 c0 -5 -4 -10 -10 -10 -5 0
-10 5 -10 10 0 6 5 10 10 10 6 0 10 -4 10 -10z m800 -77 c0 -20 -3 -24 -11
-16 -6 6 -17 9 -24 7 -15 -6 -29 12 -20 26 3 6 17 10 31 10 19 0 24 -5 24 -27z
m-1206 -77 c-3 -9 -10 -13 -16 -10 -5 3 -4 12 3 20 15 18 22 13 13 -10z m1012
-53 c-10 -10 -19 5 -10 18 6 11 8 11 12 0 2 -7 1 -15 -2 -18z m-1964 -45 c-3
-13 -1 -19 5 -15 6 4 8 -3 5 -18 -6 -35 -30 -33 -25 3 6 35 11 52 17 52 2 0 2
-10 -2 -22z m1448 -3 c0 -8 -4 -15 -10 -15 -5 0 -10 7 -10 15 0 8 5 15 10 15
6 0 10 -7 10 -15z m530 0 c0 -8 -4 -15 -10 -15 -5 0 -10 7 -10 15 0 8 5 15 10
15 6 0 10 -7 10 -15z m-1930 -45 c0 -13 -1 -13 -10 0 -5 8 -10 22 -10 30 0 13
1 13 10 0 5 -8 10 -22 10 -30z m895 -30 c3 -5 1 -10 -4 -10 -6 0 -11 5 -11 10
0 6 2 10 4 10 3 0 8 -4 11 -10z m52 -16 c-9 -9 -28 6 -21 18 4 6 10 6 17 -1 6
-6 8 -13 4 -17z m-500 -66 c-3 -8 -6 -5 -6 6 -1 11 2 17 5 13 3 -3 4 -12 1
-19z m513 -13 c0 -8 -4 -17 -10 -20 -6 -4 -10 5 -10 20 0 15 4 24 10 20 6 -3
10 -12 10 -20z m-30 -15 c0 -11 -7 -20 -15 -20 -13 0 -13 3 -3 20 7 11 14 20
15 20 2 0 3 -9 3 -20z m985 -10 c3 -5 1 -10 -4 -10 -6 0 -11 5 -11 10 0 6 2
10 4 10 3 0 8 -4 11 -10z m-2700 -41 c4 -6 13 -8 20 -5 20 7 71 -53 101 -121
15 -35 31 -63 36 -63 4 0 8 -16 8 -35 0 -47 -41 -95 -64 -76 -14 11 -14 17 -1
47 13 31 12 38 -10 88 -13 29 -44 79 -69 110 -25 30 -46 58 -46 61 0 9 19 5
25 -6z m1352 -61 c-3 -7 -5 -2 -5 12 0 14 2 19 5 13 2 -7 2 -19 0 -25z m1667
6 c11 -28 6 -39 -9 -20 -8 11 -15 23 -15 28 0 14 18 9 24 -8z m-2323 -31 c1
-17 2 -17 6 0 5 21 23 23 23 2 0 -8 6 -15 13 -16 9 0 9 -2 0 -6 -9 -3 -9 -9
-2 -21 13 -21 -9 -93 -31 -100 -12 -4 -11 -1 3 15 16 19 23 43 12 43 -3 0 -15
-9 -27 -20 -29 -27 -35 -25 -40 10 -3 20 0 30 9 30 9 0 13 13 13 40 0 38 19
58 21 23z m679 -26 c13 -38 13 -46 -1 -27 -8 12 -10 8 -7 -17 3 -18 1 -30 -4
-27 -4 3 -8 23 -8 45 0 24 -4 38 -10 34 -5 -3 -10 0 -10 8 0 26 29 14 40 -16z
m1777 11 c-3 -8 -6 -5 -6 6 -1 11 2 17 5 13 3 -3 4 -12 1 -19z m-37 -18 c-9
-5 -10 -20 -6 -44 4 -20 3 -36 -2 -36 -6 0 -12 12 -14 28 -3 15 -8 34 -12 43
-6 13 -1 17 19 17 17 0 22 -3 15 -8z m-3153 -22 c-3 -8 -6 -5 -6 6 -1 11 2 17
5 13 3 -3 4 -12 1 -19z m88 -26 c-11 -11 -27 17 -20 35 6 16 8 16 16 -6 5 -13
7 -26 4 -29z m1352 26 c-3 -8 -6 -5 -6 6 -1 11 2 17 5 13 3 -3 4 -12 1 -19z
m-1407 -73 c7 -8 8 -15 2 -15 -5 0 -15 7 -22 15 -7 8 -8 15 -2 15 5 0 15 -7
22 -15z m2860 -10 c18 -21 -4 -45 -41 -45 -51 0 -30 54 22 59 4 1 12 -6 19
-14z m345 -45 c3 -5 -3 -10 -15 -10 -12 0 -18 5 -15 10 3 6 10 10 15 10 5 0
12 -4 15 -10z m-465 -14 c0 -14 -37 -29 -52 -20 -14 9 -9 22 10 27 32 9 42 7
42 -7z m-1914 -33 c-8 -15 -15 -22 -16 -15 0 14 22 53 28 47 2 -2 -3 -16 -12
-32z m584 27 c0 -5 -4 -10 -10 -10 -5 0 -10 5 -10 10 0 6 5 10 10 10 6 0 10
-4 10 -10z m1576 -60 c15 -27 31 -50 35 -50 5 0 6 -7 3 -15 -9 -23 -33 -18
-46 10 -6 14 -14 25 -17 25 -4 0 -6 18 -6 40 0 22 0 40 2 40 1 0 14 -22 29
-50z m244 25 c0 -8 -5 -17 -11 -21 -6 -3 -9 -19 -5 -35 3 -16 1 -29 -4 -29 -6
0 -10 -11 -10 -24 0 -14 -4 -27 -9 -31 -12 -7 -31 26 -31 55 0 17 4 20 20 15
17 -5 20 -2 20 24 0 16 -5 33 -10 36 -16 10 8 35 26 28 8 -3 14 -11 14 -18z
m-1820 -5 c0 -11 4 -20 9 -20 5 0 11 -10 14 -22 4 -23 4 -23 15 2 l11 25 2
-25 c6 -82 6 -79 -15 -64 -11 7 -28 35 -38 61 -21 55 -22 63 -8 63 6 0 10 -9
10 -20z m-636 -14 c-3 -9 -10 -16 -15 -16 -5 0 -4 9 3 20 14 22 21 20 12 -4z
m2286 14 c0 -5 -2 -10 -4 -10 -3 0 -8 5 -11 10 -3 6 -1 10 4 10 6 0 11 -4 11
-10z m-2445 -29 c-3 -8 4 -23 15 -33 11 -10 20 -26 20 -34 0 -8 4 -13 8 -10
12 7 38 -12 29 -21 -4 -4 -17 -2 -28 5 -11 7 -24 10 -30 6 -17 -10 -37 16 -35
46 1 17 -4 32 -11 34 -23 9 -14 26 12 24 18 -2 24 -7 20 -17z m2519 -12 c-3
-5 -10 -7 -15 -3 -5 3 -7 10 -3 15 3 5 10 7 15 3 5 -3 7 -10 3 -15z m-1724
-41 c0 -20 -18 -5 -23 19 -5 26 -4 26 9 8 8 -10 14 -22 14 -27z m1645 -48 c10
-11 14 -20 8 -20 -5 0 -20 9 -33 20 -16 14 -19 20 -8 20 8 0 23 -9 33 -20z
m-1625 -25 c0 -5 -5 -3 -10 5 -5 8 -10 20 -10 25 0 6 5 3 10 -5 5 -8 10 -19
10 -25z m1705 -19 c-33 -33 -37 -33 -32 2 3 18 9 26 21 24 9 -2 16 3 16 10 0
8 3 9 11 1 7 -7 3 -18 -16 -37z m-135 15 c0 -5 8 -8 17 -7 10 0 19 -7 21 -16
2 -11 -3 -18 -12 -18 -9 0 -16 5 -16 10 0 18 -19 10 -25 -11 -4 -11 -22 -28
-41 -37 -30 -14 -36 -14 -49 -1 -13 13 -13 17 1 38 24 33 104 66 104 42z
m-1510 -45 c0 6 6 11 14 11 8 0 12 -6 9 -14 -6 -15 -43 -18 -43 -4 0 5 -3 18
-6 28 -3 10 2 7 10 -7 8 -14 15 -20 16 -14z m244 -5 c3 -4 -1 -17 -9 -27 -11
-15 -15 -16 -15 -4 -1 8 -6 4 -11 -10 -8 -20 -12 -22 -19 -10 -16 24 -11 40
13 50 29 11 35 12 41 1z m-154 -43 c0 -13 -23 -5 -28 10 -2 7 2 10 12 6 9 -3
16 -11 16 -16z m1450 -34 c0 -9 -7 -14 -17 -12 -25 5 -28 28 -4 28 12 0 21 -6
21 -16z m62 4 c-9 -9 -15 -9 -24 0 -9 9 -7 12 12 12 19 0 21 -3 12 -12z
m-1522 -39 c0 -14 -17 -10 -23 5 -4 10 -1 13 9 9 7 -3 14 -9 14 -14z m58 2
c11 -7 11 -9 -1 -14 -16 -6 -27 0 -27 15 0 10 11 10 28 -1z m302 -266 c0 -8
-4 -15 -10 -15 -5 0 -7 7 -4 15 4 8 8 15 10 15 2 0 4 -7 4 -15z m-1923 -517
c-3 -8 -6 -5 -6 6 -1 11 2 17 5 13 3 -3 4 -12 1 -19z m227 -118 c-6 -5 -24 21
-24 34 0 6 6 1 14 -10 8 -10 12 -21 10 -24z m46 0 c0 -11 -2 -20 -4 -20 -2 0
-6 9 -9 20 -3 11 -1 20 4 20 5 0 9 -9 9 -20z m-32 -39 c3 -8 -1 -12 -9 -9 -7
2 -15 10 -17 17 -3 8 1 12 9 9 7 -2 15 -10 17 -17z m92 -2 c0 -6 -4 -7 -10 -4
-5 3 -10 11 -10 16 0 6 5 7 10 4 6 -3 10 -11 10 -16z m-30 -29 c0 -5 -4 -10
-9 -10 -6 0 -13 5 -16 10 -3 6 1 10 9 10 9 0 16 -4 16 -10z m-170 -291 c0 -12
-27 -11 -35 1 -11 17 5 32 21 19 8 -6 14 -15 14 -20z m-60 -14 c0 -8 -2 -15
-4 -15 -2 0 -6 7 -10 15 -3 8 -1 15 4 15 6 0 10 -7 10 -15z m194 -180 c3 -8 1
-15 -4 -15 -6 0 -10 7 -10 15 0 8 2 15 4 15 2 0 6 -7 10 -15z m40 -34 c3 -5
-5 -8 -19 -7 -14 0 -25 4 -25 9 0 10 38 9 44 -2z m-109 -35 c31 -47 -10 -111
-93 -147 -60 -26 -70 -24 -87 17 -20 49 -19 54 13 91 34 39 69 58 115 61 29 2
39 -2 52 -22z m300 -56 c3 -5 1 -10 -4 -10 -6 0 -11 5 -11 10 0 6 2 10 4 10 3
0 8 -4 11 -10z m517 -67 c-5 -15 -32 -17 -32 -3 0 6 5 10 10 10 6 0 10 12 11
28 l1 27 7 -25 c4 -14 6 -31 3 -37z m-132 43 c0 -3 -4 -8 -10 -11 -5 -3 -10
-1 -10 4 0 6 5 11 10 11 6 0 10 -2 10 -4z m93 -48 c7 -25 3 -33 -12 -23 -13 8
-15 45 -2 45 5 0 11 -10 14 -22z m-8 -68 c3 -5 -1 -10 -9 -10 -9 0 -16 5 -16
10 0 6 4 10 9 10 6 0 13 -4 16 -10z m-415 -20 c0 -5 -2 -10 -4 -10 -3 0 -8 5
-11 10 -3 6 -1 10 4 10 6 0 11 -4 11 -10z m176 -55 c-16 -14 -34 -25 -40 -25
-13 0 45 49 59 50 6 0 -3 -11 -19 -25z m-59 -27 c-3 -8 -6 -5 -6 6 -1 11 2 17
5 13 3 -3 4 -12 1 -19z"/>
<path d="M0 4350 c0 -19 3 -21 12 -12 9 9 9 15 0 24 -9 9 -12 7 -12 -12z"/>
<path d="M3998 4285 c-3 -3 7 -19 22 -35 44 -47 67 -36 34 15 -15 23 -43 33
-56 20z"/>
<path d="M4074 4176 c-3 -8 -3 -20 1 -26 3 -5 -1 -10 -11 -10 -13 0 -14 -3 -4
-15 10 -12 9 -16 -4 -21 -10 -4 -15 -12 -12 -19 2 -6 0 -18 -4 -25 -8 -13 -4
-24 19 -59 8 -12 12 -12 25 2 9 8 16 26 17 39 1 20 3 19 15 -10 11 -26 18 -31
28 -23 15 13 36 -4 36 -30 0 -10 5 -21 10 -24 6 -3 10 -15 10 -26 0 -10 5 -19
11 -19 8 0 10 14 6 39 -3 22 0 44 6 50 8 8 4 19 -16 38 -15 15 -27 22 -27 15
0 -6 -9 -12 -19 -12 -19 0 -37 42 -26 60 6 10 -11 44 -38 72 -15 15 -18 16
-23 4z"/>
<path d="M4084 3780 c-10 -19 -17 -43 -15 -53 1 -9 -5 -20 -13 -23 -12 -5 -13
-10 -4 -27 6 -12 14 -28 18 -36 6 -14 50 -27 50 -15 0 10 -23 49 -34 57 -8 6
-7 10 2 14 6 2 12 15 12 27 0 12 5 27 10 32 7 7 7 19 2 35 -9 23 -9 23 -28
-11z"/>
<path d="M3980 3645 c0 -8 5 -15 10 -15 6 0 10 7 10 15 0 8 -4 15 -10 15 -5 0
-10 -7 -10 -15z"/>
<path d="M4028 3643 c-9 -19 -9 -73 1 -73 5 0 11 -12 13 -27 l4 -28 11 27 c8
18 9 37 2 62 -10 35 -24 53 -31 39z"/>
<path d="M4050 3500 c0 -5 4 -10 9 -10 6 0 13 5 16 10 3 6 -1 10 -9 10 -9 0
-16 -4 -16 -10z"/>
<path d="M4003 3426 c4 -10 7 -24 7 -32 0 -8 5 -14 11 -14 15 0 6 53 -10 58
-10 3 -12 0 -8 -12z"/>
<path d="M1281 3418 c0 -10 -6 -18 -12 -18 -5 0 -7 -5 -3 -11 10 -16 27 5 21
27 -4 17 -5 17 -6 2z"/>
<path d="M3836 3414 c-4 -10 -1 -14 6 -12 15 5 23 28 10 28 -5 0 -13 -7 -16
-16z"/>
<path d="M1540 3405 c-7 -9 -11 -17 -9 -20 3 -2 10 5 17 15 14 24 10 26 -8 5z"/>
<path d="M1330 3314 c0 -14 4 -23 10 -19 6 3 10 15 10 26 0 10 -4 19 -10 19
-5 0 -10 -12 -10 -26z"/>
<path d="M1366 3317 c3 -10 9 -15 12 -12 3 3 0 11 -7 18 -10 9 -11 8 -5 -6z"/>
<path d="M1556 3317 c3 -10 9 -15 12 -12 3 3 0 11 -7 18 -10 9 -11 8 -5 -6z"/>
<path d="M1400 3306 c0 -8 5 -18 10 -21 6 -3 10 3 10 14 0 12 -4 21 -10 21 -5
0 -10 -6 -10 -14z"/>
<path d="M1540 3211 c0 -6 5 -13 10 -16 6 -3 10 1 10 9 0 9 -4 16 -10 16 -5 0
-10 -4 -10 -9z"/>
<path d="M4010 3204 c0 -8 5 -12 10 -9 6 3 10 10 10 16 0 5 -4 9 -10 9 -5 0
-10 -7 -10 -16z"/>
<path d="M4016 3164 c-4 -10 3 -35 14 -57 16 -30 18 -42 9 -47 -6 -4 -8 -13
-4 -19 5 -9 10 -9 21 0 10 8 12 23 7 53 -12 78 -32 108 -47 70z"/>
<path d="M4082 3150 c0 -14 2 -19 5 -12 2 6 2 18 0 25 -3 6 -5 1 -5 -13z"/>
<path d="M1570 3140 c0 -5 5 -10 10 -10 6 0 10 5 10 10 0 6 -4 10 -10 10 -5 0
-10 -4 -10 -10z"/>
<path d="M1280 3080 c-13 -8 -12 -10 3 -10 14 0 17 -5 12 -21 -5 -15 -4 -19 4
-15 12 8 15 56 4 56 -5 0 -15 -5 -23 -10z"/>
<path d="M4209 2985 c-3 -5 -9 -23 -13 -38 -5 -19 -12 -27 -21 -23 -9 3 -12 0
-9 -9 3 -8 11 -12 19 -9 7 3 15 -2 19 -12 5 -12 9 -14 20 -5 7 6 16 8 19 4 13
-12 7 12 -7 33 -8 11 -16 31 -18 44 -1 14 -6 21 -9 15z"/>
<path d="M4304 2876 c-3 -8 -1 -23 5 -33 9 -15 10 -13 11 15 0 34 -7 42 -16
18z"/>
<path d="M4232 2862 c-16 -10 -5 -42 14 -42 8 0 14 10 14 25 0 26 -7 30 -28
17z"/>
<path d="M4266 2802 c-4 -7 -14 -11 -21 -10 -13 3 -15 0 -15 -20 0 -14 41 -11
46 3 8 21 0 43 -10 27z"/>
<path d="M1333 2715 c-8 -9 -6 -15 7 -25 10 -7 16 -19 13 -26 -3 -8 2 -11 13
-10 20 3 32 26 14 26 -6 0 -9 4 -6 9 9 13 -3 38 -17 38 -7 0 -18 -6 -24 -12z"/>
<path d="M4240 2676 c-10 -13 -9 -19 11 -35 30 -24 33 -22 16 18 -12 28 -15
30 -27 17z"/>
<path d="M1891 2614 c0 -11 3 -14 6 -6 3 7 2 16 -1 19 -3 4 -6 -2 -5 -13z"/>
<path d="M1953 2595 c0 -8 4 -15 9 -15 4 0 8 4 8 9 0 6 -4 12 -8 15 -5 3 -9
-1 -9 -9z"/>
<path d="M1970 2566 c0 -2 7 -7 16 -10 8 -3 12 -2 9 4 -6 10 -25 14 -25 6z"/>
<path d="M1976 2518 c-8 -32 -7 -48 3 -48 12 0 22 53 12 63 -5 5 -11 -2 -15
-15z"/>
<path d="M1960 2440 c0 -5 16 -26 36 -46 l37 -36 -7 28 c-4 16 -12 31 -17 32
-5 2 -9 10 -9 18 0 8 -9 14 -20 14 -11 0 -20 -4 -20 -10z"/>
<path d="M2030 2423 c0 -13 5 -23 10 -23 13 0 13 11 0 30 -8 12 -10 11 -10 -7z"/>
<path d="M2091 2394 c0 -11 3 -14 6 -6 3 7 2 16 -1 19 -3 4 -6 -2 -5 -13z"/>
<path d="M1143 2305 c-6 -14 -7 -25 -2 -25 5 0 9 5 9 11 0 5 4 8 9 5 5 -3 12
1 15 10 3 8 2 13 -3 9 -5 -3 -11 -1 -13 5 -1 5 -8 -2 -15 -15z"/>
<path d="M1087 2291 c-3 -14 -1 -18 9 -14 8 3 14 11 14 19 0 21 -17 17 -23 -5z"/>
<path d="M921 2228 c2 -13 0 -29 -4 -35 -6 -9 -3 -11 7 -7 18 7 30 39 21 54
-11 18 -26 10 -24 -12z"/>
<path d="M977 2225 c-3 -16 0 -24 7 -22 14 4 21 47 8 47 -5 0 -12 -11 -15 -25z"/>
<path d="M863 2226 c4 -10 2 -25 -4 -32 -7 -8 -7 -14 -1 -14 5 0 15 7 22 15
10 12 8 18 -6 32 -17 17 -18 17 -11 -1z"/>
<path d="M2310 2206 c0 -2 7 -7 16 -10 8 -3 12 -2 9 4 -6 10 -25 14 -25 6z"/>
<path d="M3782 2174 c7 -60 -8 -116 -57 -216 -50 -102 -99 -175 -148 -218 -18
-15 -46 -41 -63 -56 -34 -32 -46 -41 -124 -100 -87 -64 -177 -96 -300 -105
-23 -1 -23 -2 5 -8 27 -6 30 -10 27 -41 -2 -19 -10 -42 -18 -51 -8 -8 -14 -22
-14 -30 0 -8 -9 -31 -20 -52 -22 -41 -20 -68 8 -99 8 -10 24 -18 35 -18 11 0
17 -3 14 -7 -12 -11 27 -32 44 -23 22 12 59 -23 59 -57 0 -21 2 -24 15 -13 16
13 18 9 16 -27 -2 -14 5 -24 18 -28 12 -3 21 -12 21 -18 0 -7 7 -3 15 7 14 18
15 18 26 -10 6 -16 12 -38 14 -49 4 -34 28 -75 42 -75 8 0 12 -4 8 -9 -3 -5
-1 -12 5 -16 5 -3 10 -19 10 -36 0 -16 4 -29 10 -29 5 0 14 -17 20 -38 6 -20
16 -48 24 -61 l13 -23 17 38 c9 22 22 47 28 56 7 9 9 21 5 25 -5 4 -13 1 -18
-7 -8 -11 -9 -7 -5 15 5 21 4 26 -3 15 -18 -26 -76 21 -79 65 0 5 -10 13 -22
17 -24 9 -19 27 8 23 9 -1 11 0 3 2 -17 6 -8 69 14 93 9 10 16 29 15 42 -4 47
0 60 15 54 11 -4 15 1 15 19 0 13 -7 30 -15 39 -28 27 -19 75 21 111 34 31 36
36 29 77 -4 23 -12 51 -17 61 -7 14 -2 25 25 52 19 19 38 35 42 35 4 0 17 9
29 19 11 10 42 38 69 61 26 24 47 47 47 53 0 5 8 15 17 22 16 12 16 16 3 40
-14 26 -13 29 8 43 28 18 30 46 2 37 -15 -5 -21 0 -26 20 -8 31 19 77 41 69
21 -9 45 14 45 42 0 13 9 28 20 34 11 6 20 21 20 33 0 15 16 32 48 55 27 17
54 32 60 32 7 0 12 9 12 21 0 16 -4 19 -17 14 -49 -21 -72 -18 -102 16 -17 18
-31 46 -33 62 -2 17 -9 32 -17 35 -10 3 -12 -4 -9 -34z m-308 -762 c-11 -17
-64 -30 -64 -15 0 4 12 18 27 30 30 27 56 16 37 -15z m-84 -216 c0 -7 9 -21
20 -31 15 -13 17 -22 9 -36 -13 -25 -29 -24 -29 1 0 16 -7 20 -30 20 -36 0
-36 2 -8 40 21 29 38 31 38 6z m67 -58 c-3 -8 -6 -5 -6 6 -1 11 2 17 5 13 3
-3 4 -12 1 -19z"/>
<path d="M2282 2153 c-34 -17 -43 -33 -14 -28 9 2 22 4 28 4 11 1 28 30 22 37
-2 1 -18 -4 -36 -13z"/>
<path d="M3342 2089 c-24 -9 -22 -29 4 -29 8 0 22 -9 31 -20 16 -18 18 -19 24
-3 6 19 -11 63 -26 62 -5 0 -20 -4 -33 -10z"/>
<path d="M770 2070 c0 -5 5 -10 10 -10 6 0 10 5 10 10 0 6 -4 10 -10 10 -5 0
-10 -4 -10 -10z"/>
<path d="M780 1980 c0 -5 5 -10 11 -10 5 0 7 5 4 10 -3 6 -8 10 -11 10 -2 0
-4 -4 -4 -10z"/>
<path d="M903 1833 c-23 -9 -14 -23 15 -23 37 0 60 15 37 24 -19 7 -34 7 -52
-1z"/>
<path d="M3065 1790 c3 -5 10 -10 16 -10 5 0 9 5 9 10 0 6 -7 10 -16 10 -8 0
-12 -4 -9 -10z"/>
<path d="M3105 1790 c-3 -5 -1 -10 4 -10 6 0 11 5 11 10 0 6 -2 10 -4 10 -3 0
-8 -4 -11 -10z"/>
<path d="M980 1674 c0 -19 -4 -25 -15 -20 -8 3 -15 1 -15 -4 0 -6 9 -10 20
-10 16 0 20 7 20 30 0 17 -2 30 -5 30 -3 0 -5 -12 -5 -26z"/>
<path d="M2650 1650 c-12 -16 -19 -34 -15 -40 9 -14 46 12 40 29 -3 7 0 20 6
27 8 9 8 14 1 14 -6 0 -20 -13 -32 -30z"/>
<path d="M1040 1609 c0 -5 -4 -8 -9 -5 -5 3 -11 -1 -15 -9 -4 -11 1 -15 18
-15 13 0 27 7 30 16 9 22 8 24 -9 24 -8 0 -15 -5 -15 -11z"/>
<path d="M986 1583 c-6 -14 -5 -15 5 -6 7 7 10 15 7 18 -3 3 -9 -2 -12 -12z"/>
<path d="M2899 1578 c-1 -7 -1 -21 0 -30 1 -10 -2 -18 -8 -18 -19 0 -71 -62
-71 -86 0 -13 -4 -24 -10 -24 -5 0 -10 -9 -10 -19 0 -12 -9 -21 -26 -25 -14
-4 -30 -18 -37 -34 -7 -15 -19 -27 -27 -27 -8 0 -17 -10 -20 -22 -10 -42 -39
-66 -71 -59 -21 4 -29 2 -29 -9 0 -7 -9 -17 -20 -20 -11 -4 -18 -11 -15 -16 3
-5 -1 -6 -9 -3 -9 3 -16 1 -16 -5 0 -6 6 -11 13 -12 6 0 2 -5 -10 -11 -13 -6
-24 -17 -24 -25 -1 -7 -2 -19 -3 -25 -1 -7 -8 -16 -16 -20 -12 -5 -12 -7 3 -7
9 -1 17 -5 17 -10 0 -4 -11 -6 -25 -3 -14 2 -22 8 -19 13 3 5 -2 6 -11 2 -13
-5 -14 -7 -3 -14 10 -7 7 -11 -9 -15 -31 -8 -29 -17 7 -32 29 -13 40 -37 20
-44 -14 -5 22 -45 48 -53 15 -4 22 -2 22 8 0 13 43 57 57 57 12 0 103 101 103
115 0 14 51 55 68 55 6 0 16 16 22 35 6 19 16 33 21 29 10 -6 30 37 34 70 1
11 7 22 13 24 7 2 12 12 12 22 0 9 7 23 15 30 11 9 14 22 10 41 -4 18 -2 30 8
36 7 4 17 16 20 26 4 11 16 21 27 24 11 3 20 9 20 14 0 5 -7 6 -15 3 -8 -4
-22 -3 -31 0 -14 5 -14 8 0 28 11 16 13 25 4 35 -13 16 -28 17 -29 1z m-119
-283 c0 -8 -4 -15 -9 -15 -13 0 -22 16 -14 24 11 11 23 6 23 -9z"/>
<path d="M942 1551 c4 -13 18 -16 19 -4 0 4 -5 9 -11 12 -7 2 -11 -2 -8 -8z"/>
<path d="M3000 1490 c0 -5 5 -10 10 -10 6 0 10 5 10 10 0 6 -4 10 -10 10 -5 0
-10 -4 -10 -10z"/>
<path d="M2717 1423 c-14 -13 -6 -18 31 -19 20 -1 27 1 15 3 -13 2 -23 9 -23
14 0 10 -14 12 -23 2z"/>
<path d="M2608 1403 c-16 -4 -35 -40 -26 -49 10 -9 70 10 75 23 5 13 -13 34
-27 32 -3 -1 -13 -3 -22 -6z"/>
<path d="M2632 1297 c-18 -21 0 -40 23 -24 10 8 15 19 11 25 -9 16 -21 15 -34
-1z"/>
<path d="M1186 1191 c-4 -7 -5 -15 -2 -18 9 -9 19 4 14 18 -4 11 -6 11 -12 0z"/>
<path d="M1246 1158 c3 -5 10 -6 15 -3 13 9 11 12 -6 12 -8 0 -12 -4 -9 -9z"/>
<path d="M3040 1160 c0 -5 7 -7 15 -4 8 4 15 8 15 10 0 2 -7 4 -15 4 -8 0 -15
-4 -15 -10z"/>
<path d="M1203 1145 c-3 -9 -3 -18 -1 -21 3 -3 8 4 11 16 6 23 -1 27 -10 5z"/>
<path d="M1370 1135 c0 -8 5 -15 10 -15 6 0 10 7 10 15 0 8 -4 15 -10 15 -5 0
-10 -7 -10 -15z"/>
<path d="M1630 1136 c0 -9 5 -16 10 -16 6 0 10 4 10 9 0 6 -4 13 -10 16 -5 3
-10 -1 -10 -9z"/>
<path d="M2415 1000 c3 -5 11 -10 16 -10 6 0 7 5 4 10 -3 6 -11 10 -16 10 -6
0 -7 -4 -4 -10z"/>
<path d="M1310 966 c0 -9 -7 -12 -19 -9 -24 6 -35 -11 -22 -34 5 -10 12 -26
15 -35 8 -26 60 -23 89 5 36 33 49 61 35 75 -18 18 -98 16 -98 -2z m26 -41 c0
-28 -17 -33 -35 -11 -10 11 -8 17 6 25 26 15 29 14 29 -14z"/>
<path d="M2439 941 c8 -5 20 -22 27 -38 11 -25 12 -25 13 -6 1 23 -23 53 -42
53 -8 0 -7 -4 2 -9z"/>
<path d="M1635 910 c-3 -5 -1 -10 4 -10 6 0 11 5 11 10 0 6 -2 10 -4 10 -3 0
-8 -4 -11 -10z"/>
<path d="M1675 910 c-3 -6 1 -7 9 -4 18 7 21 14 7 14 -6 0 -13 -4 -16 -10z"/>
<path d="M1793 896 c-26 -12 -30 -26 -8 -26 20 0 19 -27 -1 -38 -9 -5 -14 -14
-10 -21 8 -13 43 2 63 28 16 21 16 25 -4 48 -15 16 -22 18 -40 9z"/>
<path d="M1738 843 c7 -3 16 -2 19 1 4 3 -2 6 -13 5 -11 0 -14 -3 -6 -6z"/>
<path d="M1245 830 c-7 -12 2 -30 16 -30 12 0 12 27 0 35 -5 3 -12 1 -16 -5z"/>
<path d="M1903 813 c-18 -7 -16 -23 2 -23 8 0 15 7 15 15 0 8 -1 15 -2 14 -2
0 -9 -3 -15 -6z"/>
<path d="M1391 781 c-10 -6 -10 -10 -1 -16 13 -8 24 -1 19 14 -3 6 -10 7 -18
2z"/>
<path d="M1435 770 c3 -5 8 -10 11 -10 2 0 4 5 4 10 0 6 -5 10 -11 10 -5 0 -7
-4 -4 -10z"/>
<path d="M1342 753 c-15 -6 -6 -23 14 -23 8 0 14 7 14 15 0 15 -6 17 -28 8z"/>
<path d="M2389 731 c-19 -16 -31 -32 -26 -37 4 -4 0 -16 -9 -25 -15 -17 -15
-19 -1 -25 25 -9 49 -1 69 26 46 62 22 107 -33 61z"/>
<path d="M3717 653 c-4 -3 -7 -50 -7 -103 0 -69 -4 -102 -15 -116 -8 -10 -15
-15 -15 -11 0 5 -8 1 -17 -8 -20 -21 -72 -15 -103 12 -74 64 -81 75 -75 117
l6 41 -27 -55 c-30 -62 -89 -138 -143 -188 -54 -49 -148 -122 -158 -122 -5 0
-18 -8 -29 -17 -34 -30 -83 -63 -94 -63 -5 0 -10 -4 -10 -10 0 -5 -5 -10 -11
-10 -6 0 -38 -16 -71 -36 -77 -45 -133 -66 -180 -68 -21 -2 -41 -6 -45 -9 -8
-9 259 -9 281 -1 9 3 16 13 16 21 0 8 7 13 18 11 10 -2 16 -11 14 -21 -3 -16
29 -17 472 -17 306 0 477 4 481 10 8 13 42 13 47 0 2 -7 96 -9 272 -8 l269 3
-97 63 c-53 34 -102 62 -109 62 -8 0 -12 -13 -11 -33 2 -28 -4 -37 -28 -52
-22 -12 -33 -14 -41 -6 -8 8 -8 14 1 23 7 7 12 19 12 28 0 8 6 27 14 42 12 23
12 29 0 39 -11 9 -15 8 -20 -5 -3 -9 -12 -16 -20 -16 -16 0 -19 17 -3 22 22 7
-4 35 -64 68 -34 19 -68 39 -75 46 -7 7 -28 18 -47 25 -19 7 -35 17 -35 21 0
4 -9 8 -20 8 -10 0 -23 6 -27 13 -8 14 -56 44 -134 87 -89 49 -119 84 -119
139 0 55 -30 97 -53 74z m110 -265 c6 -7 13 -32 17 -55 5 -35 2 -46 -17 -69
-19 -22 -28 -25 -55 -19 -40 8 -41 27 -2 85 16 25 30 51 30 58 0 6 4 12 9 12
5 0 13 -6 18 -12z m-137 -18 c0 -22 -7 -25 -30 -10 -12 8 -12 10 5 11 l20 0
-20 9 c-19 8 -19 9 3 9 16 1 22 -5 22 -19z m325 -40 c3 -5 1 -10 -4 -10 -6 0
-11 5 -11 10 0 6 2 10 4 10 3 0 8 -4 11 -10z m35 -36 c0 -8 -4 -14 -10 -14
-17 0 -31 -39 -21 -58 14 -25 -12 -62 -43 -62 -30 0 -39 31 -21 68 7 15 18 39
24 54 14 36 71 47 71 12z m-496 -54 c16 -16 -28 -50 -64 -50 -59 0 -74 18 -43
53 14 15 27 18 57 14 21 -3 44 -11 50 -17z m614 -10 c-7 -11 -16 -16 -21 -11
-12 12 0 31 19 31 12 0 12 -3 2 -20z m-818 3 c-1 -13 -50 -44 -60 -38 -13 8
21 43 43 44 9 1 17 -2 17 -6z m840 -47 c-15 -15 -33 4 -19 20 10 12 14 12 20
2 5 -7 4 -17 -1 -22z m65 -15 c3 -5 1 -12 -5 -16 -5 -3 -10 1 -10 9 0 18 6 21
15 7z m-778 -84 c-16 -25 -44 -44 -52 -36 -3 3 2 20 10 36 12 23 20 30 36 26
18 -5 18 -8 6 -26z"/>
<path d="M2228 561 c-14 -5 -68 -73 -68 -86 0 -17 41 0 68 28 42 43 42 74 0
58z"/>
<path d="M2368 508 c-29 -47 -37 -75 -25 -87 17 -17 32 -13 66 18 35 33 39 58
14 77 -26 19 -39 17 -55 -8z"/>
<path d="M2200 106 c0 -10 9 -16 21 -16 24 0 21 23 -4 28 -10 2 -17 -3 -17
-12z"/>
<path d="M2272 112 c-19 -3 -23 -8 -18 -25 3 -12 6 -37 6 -54 l0 -33 90 0 c89
0 97 3 82 27 -6 10 -12 10 -28 -1 -16 -13 -21 -12 -36 1 -12 11 -21 12 -36 4
-15 -8 -22 -8 -25 2 -4 9 -6 9 -6 0 -2 -26 -17 -12 -19 17 -2 21 2 30 13 30
15 0 21 26 8 32 -5 2 -19 2 -31 0z"/>
</g>
</svg>
